<?xml version="1.0" encoding="iso-8859-1"?>
<!-- Generator: Adobe Illustrator 19.1.0, SVG Export Plug-In . SVG Version: 6.00 Build 0)  -->
<svg version="1.1" id="Capa_1" xmlns="http://www.w3.org/2000/svg" xmlns:xlink="http://www.w3.org/1999/xlink" x="0px" y="0px"
	 viewBox="0 0 44.143 44.143" style="enable-background:new 0 0 44.143 44.143;" xml:space="preserve">
<path style="fill:#1E201D;" d="M42.077,27.667c0.111-0.619-0.286-1.19-0.889-1.302c-0.619-0.111-1.19,0.286-1.302,0.889
	c-0.794,4.206-3.032,7.889-6.19,10.524c-3.111,2.571-7.095,4.111-11.46,4.111c-4.952,0-9.444-2-12.682-5.254
	c-3.254-3.238-5.27-7.73-5.27-12.682s2.016-9.444,5.27-12.698c3.238-3.238,7.73-5.254,12.682-5.254c1.032,0,2.032,0.079,3,0.254
	c0.667,0.111,1.333,0.254,1.984,0.444l-2.667,2.127c-0.492,0.381-0.571,1.095-0.175,1.571c0.381,0.492,1.079,0.571,1.571,0.175
	L30.3,7.096c0.413-0.333,0.54-0.905,0.302-1.365l-2.206-5.063c-0.254-0.556-0.905-0.825-1.476-0.571
	c-0.556,0.238-0.825,0.905-0.571,1.476l1.286,2.921c-0.667-0.19-1.349-0.333-2.032-0.444c-1.111-0.19-2.222-0.286-3.365-0.286
	c-5.571,0-10.618,2.254-14.269,5.905c-3.651,3.667-5.92,8.714-5.92,14.285s2.27,10.619,5.92,14.269
	c3.651,3.651,8.698,5.92,14.269,5.92c4.889,0,9.38-1.746,12.888-4.651C38.68,36.54,41.204,32.381,42.077,27.667L42.077,27.667z"/>
<g>
</g>
<g>
</g>
<g>
</g>
<g>
</g>
<g>
</g>
<g>
</g>
<g>
</g>
<g>
</g>
<g>
</g>
<g>
</g>
<g>
</g>
<g>
</g>
<g>
</g>
<g>
</g>
<g>
</g>
</svg>
