<?xml version="1.0" encoding="iso-8859-1"?>
<!-- Generator: Adobe Illustrator 19.1.0, SVG Export Plug-In . SVG Version: 6.00 Build 0)  -->
<svg version="1.1" id="Capa_1" xmlns="http://www.w3.org/2000/svg" xmlns:xlink="http://www.w3.org/1999/xlink" x="0px" y="0px"
	 viewBox="0 0 48.606 48.606" style="enable-background:new 0 0 48.606 48.606;" xml:space="preserve">
<path style="fill:#1E201D;" d="M24.303,45.253l0.238-0.413l0,0l0,0v-0.016l0,0l0.238-0.397h-0.476h-0.476L24.303,45.253z M16.161,0
	h16.285c0.619,0,1.127,0.508,1.127,1.127V33.38c0,0.222-0.079,0.444-0.19,0.619l-4.047,6.984l-2.857,4.968v0.016L25.7,47.316
	l-0.429,0.714v0.016l0,0c-0.095,0.159-0.238,0.302-0.413,0.413c-0.524,0.302-1.222,0.127-1.524-0.413l-2.365-4.111
	c-0.032-0.032-0.063-0.079-0.079-0.127l-1.635-2.825l-4.032-6.984l0,0c-0.095-0.143-0.159-0.317-0.19-0.508l0,0
	c0-0.032,0-0.063,0-0.079v-0.016V33.38v-0.016V1.127C15.034,0.508,15.542,0,16.161,0L16.161,0z M31.334,2.238H17.272v30.015h7.031
	h7.031V2.238z M26.065,42.189l1.349-2.317l3.095-5.381h-6.206h-6.206l3.095,5.381l1.349,2.317h1.762H26.065z"/>
<g>
</g>
<g>
</g>
<g>
</g>
<g>
</g>
<g>
</g>
<g>
</g>
<g>
</g>
<g>
</g>
<g>
</g>
<g>
</g>
<g>
</g>
<g>
</g>
<g>
</g>
<g>
</g>
<g>
</g>
</svg>
