<?xml version="1.0" encoding="iso-8859-1"?>
<!-- Generator: Adobe Illustrator 19.1.0, SVG Export Plug-In . SVG Version: 6.00 Build 0)  -->
<svg version="1.1" id="Capa_1" xmlns="http://www.w3.org/2000/svg" xmlns:xlink="http://www.w3.org/1999/xlink" x="0px" y="0px"
	 viewBox="0 0 44.569 44.569" style="enable-background:new 0 0 44.569 44.569;" xml:space="preserve">
<path style="fill:#1E201D;" d="M11.698,1.739c3.111,0,5.65,1.048,7.603,2.857c1.254,1.159,2.254,2.619,2.984,4.317
	c0.73-1.698,1.73-3.159,2.968-4.317c1.952-1.809,4.508-2.857,7.619-2.857c3.238,0,6.158,1.317,8.269,3.428
	c2.127,2.127,3.428,5.047,3.428,8.27c0,5.54-6.063,12.031-10.365,16.619c-0.778,0.825-1.492,1.587-2.143,2.317l-8.936,10.079
	c-0.413,0.46-1.111,0.508-1.571,0.095c-0.048-0.032-0.079-0.063-0.111-0.095l-8.936-10.079c-0.587-0.651-1.349-1.46-2.174-2.349
	C6.031,25.437,0,18.993,0,13.437c0-3.222,1.317-6.143,3.428-8.27C5.555,3.057,8.476,1.739,11.698,1.739L11.698,1.739z M17.793,6.231
	c-1.54-1.429-3.571-2.254-6.095-2.254c-2.603,0-4.968,1.063-6.682,2.778s-2.778,4.079-2.778,6.682c0,4.682,5.682,10.746,9.73,15.063
	c0.794,0.841,1.54,1.635,2.206,2.397l8.111,9.143l8.111-9.143c0.603-0.667,1.365-1.492,2.19-2.365
	c4.032-4.317,9.746-10.412,9.746-15.095c0-2.603-1.063-4.968-2.762-6.682c-1.714-1.714-4.079-2.778-6.698-2.778
	c-2.524,0-4.555,0.825-6.095,2.254c-1.682,1.555-2.825,3.857-3.381,6.619c-0.079,0.444-0.413,0.81-0.889,0.905
	c-0.603,0.127-1.19-0.254-1.317-0.873C20.634,10.12,19.491,7.803,17.793,6.231L17.793,6.231z"/>
<g>
</g>
<g>
</g>
<g>
</g>
<g>
</g>
<g>
</g>
<g>
</g>
<g>
</g>
<g>
</g>
<g>
</g>
<g>
</g>
<g>
</g>
<g>
</g>
<g>
</g>
<g>
</g>
<g>
</g>
</svg>
