<?xml version="1.0" encoding="iso-8859-1"?>
<!-- Generator: Adobe Illustrator 19.1.0, SVG Export Plug-In . SVG Version: 6.00 Build 0)  -->
<svg version="1.1" id="Capa_1" xmlns="http://www.w3.org/2000/svg" xmlns:xlink="http://www.w3.org/1999/xlink" x="0px" y="0px"
	 viewBox="0 0 44.569 44.569" style="enable-background:new 0 0 44.569 44.569;" xml:space="preserve">
<path style="fill:#1E201D;" d="M11.698,42.83c3.111,0,5.65-1.048,7.603-2.857c1.254-1.159,2.238-2.619,2.968-4.317
	c0.746,1.698,1.73,3.159,2.984,4.317c1.952,1.809,4.492,2.857,7.603,2.857c3.238,0,6.158-1.317,8.285-3.428
	c2.111-2.111,3.428-5.047,3.428-8.27c0-5.54-6.079-12.031-10.365-16.619c-0.778-0.825-1.492-1.587-2.143-2.317L23.11,2.116
	c-0.397-0.46-1.111-0.508-1.571-0.095c-0.032,0.032-0.079,0.063-0.111,0.095l-8.936,10.079c-0.571,0.651-1.333,1.46-2.159,2.349
	C6.031,19.132,0,25.576,0,31.132c0,3.222,1.302,6.159,3.428,8.27C5.539,41.512,8.46,42.83,11.698,42.83L11.698,42.83z
	 M17.777,38.338c-1.524,1.429-3.555,2.254-6.079,2.254c-2.619,0-4.984-1.063-6.698-2.778c-1.714-1.714-2.762-4.079-2.762-6.682
	c0-4.682,5.666-10.746,9.714-15.063c0.809-0.841,1.54-1.635,2.222-2.397l8.111-9.143l8.111,9.143
	c0.587,0.667,1.349,1.492,2.174,2.365c4.047,4.317,9.761,10.412,9.761,15.095c0,2.603-1.063,4.968-2.778,6.682
	c-1.714,1.714-4.079,2.778-6.698,2.778c-2.524,0-4.555-0.825-6.095-2.254c-1.682-1.556-2.809-3.857-3.381-6.619
	c-0.063-0.444-0.413-0.809-0.873-0.905c-0.603-0.127-1.19,0.27-1.317,0.873C20.618,34.449,19.475,36.766,17.777,38.338
	L17.777,38.338z"/>
<g>
</g>
<g>
</g>
<g>
</g>
<g>
</g>
<g>
</g>
<g>
</g>
<g>
</g>
<g>
</g>
<g>
</g>
<g>
</g>
<g>
</g>
<g>
</g>
<g>
</g>
<g>
</g>
<g>
</g>
</svg>
