<?xml version="1.0" encoding="iso-8859-1"?>
<!-- Generator: Adobe Illustrator 19.1.0, SVG Export Plug-In . SVG Version: 6.00 Build 0)  -->
<svg version="1.1" id="Capa_1" xmlns="http://www.w3.org/2000/svg" xmlns:xlink="http://www.w3.org/1999/xlink" x="0px" y="0px"
	 viewBox="0 0 38.221 38.221" style="enable-background:new 0 0 38.221 38.221;" xml:space="preserve">
<path style="fill:#1E201D;" d="M19.111,0c2.603,0,4.968,1.238,6.666,3.238c1.651,1.952,2.682,4.619,2.682,7.555
	c0,0.111,0,0.222,0,0.333h3.079c0.619,0,1.127,0.492,1.127,1.111V37.11c0,0.619-0.508,1.111-1.127,1.111H6.683
	c-0.619,0-1.127-0.492-1.127-1.111V12.238c0-0.619,0.508-1.111,1.127-1.111h3.079c0-0.111,0-0.222,0-0.333
	c0-2.936,1.016-5.603,2.682-7.555C14.143,1.238,16.492,0,19.111,0L19.111,0z M19.063,19.269h0.095c0.635,0,1.222,0.27,1.651,0.683
	c0.413,0.429,0.682,1.016,0.682,1.651v6.143c0,0.635-0.27,1.222-0.682,1.651h-0.016c-0.413,0.413-1,0.683-1.635,0.683h-0.095
	c-0.635,0-1.222-0.27-1.651-0.683c-0.429-0.429-0.682-1.016-0.682-1.651v-6.143c0-0.635,0.254-1.222,0.682-1.635v-0.016l0,0h0.016
	C17.841,19.539,18.428,19.269,19.063,19.269L19.063,19.269z M19.158,21.507h-0.095c-0.032,0-0.048,0.016-0.063,0.032l0,0
	c-0.016,0.016-0.032,0.048-0.032,0.063v6.143c0,0.016,0.016,0.048,0.032,0.063c0.016,0.016,0.048,0.032,0.063,0.032h0.095
	c0.016,0,0.048-0.016,0.063-0.032l0,0c0.016-0.016,0.032-0.048,0.032-0.063v-6.143c0-0.016-0.016-0.048-0.032-0.063
	C19.206,21.523,19.174,21.507,19.158,21.507L19.158,21.507z M28.237,13.365h-0.984H10.968H9.984h-2.19v22.618h22.618V13.365H28.237z
	 M24.079,4.682c-1.286-1.508-3.032-2.444-4.968-2.444c-1.936,0-3.698,0.936-4.968,2.444C12.809,6.238,12,8.397,12,10.793
	c0,0.127,0,0.222,0,0.333h14.221c0-0.111,0-0.206,0-0.333C26.221,8.397,25.396,6.238,24.079,4.682L24.079,4.682z"/>
<g>
</g>
<g>
</g>
<g>
</g>
<g>
</g>
<g>
</g>
<g>
</g>
<g>
</g>
<g>
</g>
<g>
</g>
<g>
</g>
<g>
</g>
<g>
</g>
<g>
</g>
<g>
</g>
<g>
</g>
</svg>
