<?xml version="1.0" encoding="iso-8859-1"?>
<!-- Generator: Adobe Illustrator 19.1.0, SVG Export Plug-In . SVG Version: 6.00 Build 0)  -->
<svg version="1.1" id="Capa_1" xmlns="http://www.w3.org/2000/svg" xmlns:xlink="http://www.w3.org/1999/xlink" x="0px" y="0px"
	 viewBox="0 0 39.474 39.474" style="enable-background:new 0 0 39.474 39.474;" xml:space="preserve">
<path style="fill:#1E201D;" d="M19.745,12.11c2.635,0,5.047,1.063,6.777,2.809c1.73,1.73,2.809,4.127,2.809,6.778
	c0,2.651-1.079,5.047-2.809,6.778c-1.73,1.73-4.143,2.809-6.777,2.809c-2.651,0-5.047-1.079-6.777-2.809
	c-1.746-1.73-2.809-4.127-2.809-6.778c0-2.651,1.063-5.047,2.809-6.778C14.698,13.174,17.094,12.11,19.745,12.11L19.745,12.11z
	 M3.571,6.777V3.983c0-0.619,0.508-1.111,1.127-1.111h8.539c0.619,0,1.111,0.492,1.111,1.111v2.794h24.015
	c0.619,0,1.111,0.508,1.111,1.127v27.571c0,0.619-0.492,1.127-1.111,1.127H1.127C0.508,36.602,0,36.094,0,35.475V7.904
	c0-0.619,0.508-1.127,1.127-1.127H3.571z M12.11,6.777V5.11H5.809v1.667H12.11z M37.236,9.031H13.237H4.698h-2.46v25.333h34.998
	V9.031z M24.935,16.491c-1.333-1.317-3.159-2.143-5.19-2.143s-3.873,0.825-5.206,2.143c-1.317,1.333-2.143,3.175-2.143,5.206
	c0,2.032,0.825,3.857,2.143,5.19c1.333,1.333,3.174,2.159,5.206,2.159s3.857-0.825,5.19-2.159c1.333-1.333,2.159-3.159,2.159-5.19
	C27.094,19.666,26.268,17.824,24.935,16.491L24.935,16.491z"/>
<g>
</g>
<g>
</g>
<g>
</g>
<g>
</g>
<g>
</g>
<g>
</g>
<g>
</g>
<g>
</g>
<g>
</g>
<g>
</g>
<g>
</g>
<g>
</g>
<g>
</g>
<g>
</g>
<g>
</g>
</svg>
