<?xml version="1.0" encoding="iso-8859-1"?>
<!-- Generator: Adobe Illustrator 19.1.0, SVG Export Plug-In . SVG Version: 6.00 Build 0)  -->
<svg version="1.1" id="Capa_1" xmlns="http://www.w3.org/2000/svg" xmlns:xlink="http://www.w3.org/1999/xlink" x="0px" y="0px"
	 viewBox="0 0 43.006 43.006" style="enable-background:new 0 0 43.006 43.006;" xml:space="preserve">
<path style="fill:#1E201D;" d="M25.888,0.034c1.397,0.286,2.73,0.698,4,1.222c1.317,0.54,2.555,1.206,3.73,1.984
	c0.524,0.349,0.667,1.048,0.317,1.555c-0.048,0.063-0.079,0.127-0.143,0.175c-0.54,0.587-0.809,1.333-0.809,2.079
	c0.016,0.762,0.317,1.508,0.889,2.095c0.571,0.571,1.333,0.873,2.079,0.873c0.762,0.016,1.524-0.27,2.111-0.825
	c0.444-0.429,1.159-0.397,1.571,0.048c0.048,0.048,0.095,0.095,0.127,0.143l0,0c0.778,1.175,1.444,2.429,2,3.73
	c0.524,1.286,0.936,2.651,1.222,4.048c0.127,0.603-0.27,1.19-0.873,1.317c-0.063,0.016-0.127,0.016-0.19,0.016l0,0
	c-0.81,0.032-1.54,0.365-2.079,0.921c-0.524,0.54-0.841,1.27-0.841,2.095c0,0.81,0.317,1.555,0.841,2.095
	c0.54,0.54,1.27,0.889,2.079,0.905c0.619,0.016,1.095,0.524,1.079,1.143c0,0.079,0,0.159-0.016,0.238
	c-0.286,1.397-0.698,2.73-1.222,4c-0.556,1.317-1.222,2.555-2,3.73c-0.333,0.524-1.032,0.651-1.54,0.317
	c-0.063-0.048-0.127-0.095-0.175-0.143c-0.587-0.54-1.349-0.81-2.095-0.81c-0.746,0.016-1.508,0.302-2.079,0.889
	c-0.571,0.571-0.873,1.333-0.889,2.079c0,0.762,0.27,1.524,0.825,2.111c0.429,0.444,0.413,1.143-0.032,1.571
	c-0.048,0.048-0.095,0.095-0.159,0.127l0,0c-1.175,0.778-2.413,1.444-3.73,1.984c-1.286,0.54-2.635,0.952-4.047,1.238
	c-0.603,0.111-1.19-0.27-1.302-0.873c-0.016-0.063-0.032-0.127-0.032-0.19l0,0c-0.016-0.81-0.365-1.556-0.905-2.079
	c-0.54-0.524-1.286-0.841-2.095-0.841c-0.825,0-1.555,0.317-2.095,0.841c-0.54,0.524-0.889,1.27-0.905,2.079
	c-0.016,0.603-0.524,1.095-1.143,1.079c-0.079,0-0.159-0.016-0.238-0.032c-1.397-0.286-2.73-0.683-4-1.222
	c-1.317-0.54-2.571-1.206-3.73-1.984c-0.524-0.349-0.667-1.032-0.317-1.556c0.032-0.063,0.079-0.111,0.127-0.159
	c0.556-0.587,0.825-1.349,0.809-2.095c0-0.746-0.302-1.508-0.873-2.079c-0.587-0.587-1.333-0.873-2.079-0.889
	c-0.762,0-1.524,0.27-2.111,0.825c-0.444,0.429-1.159,0.413-1.587-0.032c-0.048-0.048-0.079-0.111-0.111-0.159l0,0
	c-0.778-1.175-1.46-2.413-2-3.73c0-0.016-0.016-0.032-0.016-0.063c-0.524-1.27-0.936-2.603-1.206-3.984
	c-0.127-0.603,0.27-1.19,0.873-1.317c0.063,0,0.127-0.016,0.19-0.016l0,0c0.809-0.016,1.54-0.365,2.063-0.905
	c0.54-0.54,0.857-1.286,0.857-2.095c0-0.825-0.317-1.556-0.857-2.095c-0.524-0.556-1.254-0.889-2.063-0.921
	c-0.619,0-1.111-0.524-1.095-1.127c0-0.095,0.016-0.159,0.032-0.238c0.286-1.397,0.698-2.73,1.222-4.016
	c0.54-1.302,1.222-2.555,2-3.73c0.333-0.508,1.032-0.651,1.54-0.317c0.063,0.048,0.127,0.095,0.175,0.143
	c0.587,0.556,1.333,0.825,2.095,0.81c0.746,0,1.492-0.302,2.079-0.873c0.571-0.587,0.873-1.333,0.873-2.095
	c0.016-0.746-0.254-1.508-0.825-2.095C8.778,4.51,8.794,3.796,9.238,3.367C9.286,3.319,9.333,3.288,9.397,3.24l0,0
	c1.159-0.778,2.413-1.444,3.73-1.984c1.27-0.524,2.635-0.952,4.047-1.222c0.603-0.127,1.19,0.27,1.302,0.873
	c0.016,0.063,0.016,0.127,0.032,0.19l0,0c0.016,0.809,0.365,1.54,0.905,2.063c0.54,0.524,1.27,0.857,2.095,0.857
	c0.809,0,1.555-0.333,2.095-0.857c0.54-0.524,0.889-1.254,0.905-2.063c0.016-0.619,0.524-1.111,1.143-1.095
	C25.729,0.002,25.809,0.018,25.888,0.034L25.888,0.034z M21.507,10.843c2.936,0,5.603,1.19,7.539,3.127
	c1.921,1.921,3.111,4.587,3.111,7.539c0,2.936-1.19,5.603-3.111,7.539c-1.936,1.921-4.603,3.111-7.539,3.111
	c-2.952,0-5.603-1.19-7.539-3.111c-1.921-1.936-3.127-4.603-3.127-7.539c0-2.952,1.206-5.619,3.127-7.539
	C15.904,12.033,18.555,10.843,21.507,10.843L21.507,10.843z M27.459,15.557c-1.524-1.524-3.635-2.476-5.952-2.476
	c-2.333,0-4.428,0.952-5.952,2.476c-1.524,1.524-2.46,3.619-2.46,5.952c0,2.317,0.936,4.428,2.46,5.952
	c1.524,1.524,3.619,2.46,5.952,2.46c2.317,0,4.428-0.936,5.952-2.46c1.524-1.524,2.46-3.635,2.46-5.952
	C29.919,19.176,28.983,17.081,27.459,15.557L27.459,15.557z M29.031,3.319C28.221,2.986,27.38,2.7,26.539,2.478
	c-0.254,0.873-0.746,1.667-1.381,2.286c-0.936,0.921-2.238,1.492-3.651,1.492c-1.429,0-2.714-0.571-3.651-1.492
	c-0.651-0.619-1.127-1.413-1.381-2.286c-0.857,0.222-1.682,0.508-2.492,0.841c-0.825,0.349-1.619,0.73-2.381,1.175
	c0.444,0.81,0.667,1.698,0.651,2.587c-0.016,1.317-0.524,2.635-1.524,3.635c-1.016,1.016-2.317,1.524-3.651,1.54
	c-0.889,0.016-1.778-0.206-2.587-0.651c-0.444,0.762-0.825,1.555-1.175,2.381c-0.333,0.81-0.619,1.635-0.841,2.492
	c0.889,0.254,1.667,0.73,2.286,1.365c0.921,0.952,1.492,2.238,1.492,3.667c0,1.413-0.571,2.698-1.492,3.651
	c-0.619,0.635-1.397,1.111-2.286,1.381c0.222,0.825,0.492,1.651,0.825,2.429c0,0.032,0.016,0.048,0.016,0.063
	c0.349,0.825,0.73,1.603,1.175,2.365c0.809-0.444,1.698-0.651,2.587-0.635c1.333,0.016,2.635,0.524,3.651,1.524
	c1,1,1.508,2.317,1.524,3.635c0.016,0.889-0.206,1.794-0.651,2.587c0.762,0.444,1.555,0.841,2.381,1.175
	c0.809,0.333,1.635,0.619,2.492,0.857c0.254-0.889,0.73-1.682,1.381-2.302c0.936-0.921,2.222-1.492,3.651-1.492
	c1.413,0,2.714,0.571,3.651,1.492c0.635,0.619,1.127,1.413,1.381,2.302c0.841-0.238,1.682-0.524,2.492-0.857
	c0.825-0.333,1.619-0.73,2.365-1.175c-0.429-0.794-0.651-1.698-0.635-2.587c0.016-1.317,0.524-2.635,1.524-3.635
	c1-1,2.317-1.508,3.635-1.524c0.905-0.016,1.794,0.19,2.587,0.635c0.444-0.762,0.841-1.54,1.19-2.365
	c0.333-0.81,0.619-1.651,0.841-2.492c-0.889-0.254-1.667-0.746-2.301-1.381c-0.921-0.952-1.476-2.238-1.476-3.651
	c0-1.429,0.556-2.714,1.476-3.667c0.635-0.635,1.413-1.111,2.301-1.365c-0.222-0.857-0.508-1.682-0.841-2.508
	c-0.349-0.81-0.746-1.603-1.19-2.365c-0.794,0.444-1.682,0.667-2.587,0.651c-1.317-0.016-2.635-0.524-3.635-1.54
	c-1-1-1.508-2.317-1.524-3.635c-0.016-0.889,0.206-1.778,0.635-2.587C30.65,4.05,29.856,3.653,29.031,3.319L29.031,3.319z"/>
<g>
</g>
<g>
</g>
<g>
</g>
<g>
</g>
<g>
</g>
<g>
</g>
<g>
</g>
<g>
</g>
<g>
</g>
<g>
</g>
<g>
</g>
<g>
</g>
<g>
</g>
<g>
</g>
<g>
</g>
</svg>
