<?xml version="1.0" encoding="iso-8859-1"?>
<!-- Generator: Adobe Illustrator 19.1.0, SVG Export Plug-In . SVG Version: 6.00 Build 0)  -->
<svg version="1.1" id="Capa_1" xmlns="http://www.w3.org/2000/svg" xmlns:xlink="http://www.w3.org/1999/xlink" x="0px" y="0px"
	 viewBox="0 0 50.443 50.443" style="enable-background:new 0 0 50.443 50.443;" xml:space="preserve">
<path style="fill:#1E201D;" d="M16.666,4.857h17.11c0.746,0,1.428,0.302,1.921,0.794c0.492,0.492,0.794,1.175,0.794,1.921v26.46
	c0,0.746-0.302,1.429-0.794,1.921l0,0c-0.492,0.492-1.175,0.81-1.921,0.81h-17.11c-0.762,0-1.429-0.317-1.921-0.81
	c-0.032-0.016-0.063-0.048-0.079-0.079c-0.444-0.476-0.73-1.127-0.73-1.841V7.571c0-0.746,0.317-1.429,0.81-1.921
	C15.238,5.159,15.905,4.857,16.666,4.857L16.666,4.857z M10.524,0h29.395c0.746,0,1.429,0.302,1.921,0.794
	c0.016,0.032,0.048,0.048,0.063,0.079c0.444,0.476,0.73,1.127,0.73,1.841v45.015c0,0.746-0.302,1.429-0.794,1.921
	c-0.492,0.492-1.175,0.794-1.921,0.794H10.524c-0.746,0-1.429-0.302-1.921-0.794l0,0l0,0c-0.492-0.492-0.794-1.175-0.794-1.921
	V2.714c0-0.746,0.302-1.429,0.794-1.921l0,0C9.095,0.302,9.778,0,10.524,0L10.524,0z M39.919,2.238H10.524
	c-0.127,0-0.254,0.048-0.333,0.143c-0.095,0.079-0.143,0.206-0.143,0.333v45.015c0,0.127,0.048,0.254,0.143,0.333l0,0
	c0.079,0.095,0.206,0.143,0.333,0.143h29.395c0.127,0,0.238-0.048,0.333-0.143c0.079-0.079,0.143-0.206,0.143-0.333V2.714
	c0-0.111-0.048-0.222-0.111-0.302l-0.032-0.032C40.157,2.286,40.046,2.238,39.919,2.238L39.919,2.238z M25.222,39.078
	c0.984,0,1.889,0.413,2.54,1.063c0.016,0.016,0.048,0.048,0.063,0.063c0.619,0.651,0.984,1.524,0.984,2.476
	c0,0.984-0.397,1.873-1.048,2.524l0,0v0.016h-0.016c-0.651,0.651-1.54,1.048-2.524,1.048c-0.984,0-1.889-0.413-2.54-1.063v0.016
	c-0.651-0.651-1.048-1.556-1.048-2.54c0-1,0.397-1.889,1.048-2.54C23.333,39.491,24.222,39.078,25.222,39.078L25.222,39.078z
	 M26.174,41.713c-0.238-0.238-0.587-0.397-0.952-0.397c-0.381,0-0.714,0.159-0.952,0.397c-0.254,0.254-0.397,0.587-0.397,0.968
	c0,0.365,0.143,0.698,0.397,0.952l0,0l0,0c0.238,0.238,0.571,0.397,0.952,0.397c0.381,0,0.714-0.159,0.952-0.397l0,0
	c0.254-0.238,0.397-0.587,0.397-0.952c0-0.365-0.127-0.683-0.349-0.921C26.206,41.745,26.19,41.729,26.174,41.713L26.174,41.713z
	 M33.777,7.095h-17.11c-0.143,0-0.254,0.063-0.349,0.143c-0.079,0.095-0.143,0.206-0.143,0.333v26.46
	c0,0.127,0.048,0.238,0.111,0.317l0.032,0.032c0.095,0.079,0.206,0.143,0.349,0.143h17.11c0.127,0,0.254-0.063,0.333-0.143h0.016
	l0,0c0.079-0.095,0.127-0.206,0.127-0.349V7.571c0-0.127-0.048-0.238-0.143-0.333C34.031,7.159,33.904,7.095,33.777,7.095
	L33.777,7.095z"/>
<g>
</g>
<g>
</g>
<g>
</g>
<g>
</g>
<g>
</g>
<g>
</g>
<g>
</g>
<g>
</g>
<g>
</g>
<g>
</g>
<g>
</g>
<g>
</g>
<g>
</g>
<g>
</g>
<g>
</g>
</svg>
