<?xml version="1.0" encoding="iso-8859-1"?>
<!-- Generator: Adobe Illustrator 19.1.0, SVG Export Plug-In . SVG Version: 6.00 Build 0)  -->
<svg version="1.1" id="Capa_1" xmlns="http://www.w3.org/2000/svg" xmlns:xlink="http://www.w3.org/1999/xlink" x="0px" y="0px"
	 viewBox="0 0 50.68 50.68" style="enable-background:new 0 0 50.68 50.68;" xml:space="preserve">
<path style="fill:#1E201D;" d="M21.935,29.657c0.619,0,1.127,0.492,1.127,1.111c0,0.619-0.508,1.127-1.127,1.127H11.238
	c-3.111,0-5.92-1.254-7.952-3.301C1.254,26.562,0,23.753,0,20.658c0-3.095,1.254-5.905,3.286-7.936
	C5.317,10.69,8.127,9.42,11.238,9.42c0.746,0,1.492,0.079,2.222,0.238c0.397,0.079,0.794,0.175,1.175,0.302
	c1.206-2.048,2.905-3.762,4.92-5.016c2.222-1.381,4.841-2.175,7.635-2.175c3.857,0,7.365,1.508,9.968,3.952
	c2.333,2.206,3.952,5.159,4.444,8.492c0.238-0.032,0.476-0.032,0.73-0.032c2.301,0,4.397,0.936,5.904,2.444
	c1.508,1.508,2.444,3.603,2.444,5.905c0,2.317-0.936,4.397-2.444,5.92c-1.508,1.508-3.603,2.444-5.904,2.444H28.745
	c-0.619,0-1.127-0.508-1.127-1.127c0-0.619,0.508-1.111,1.127-1.111h13.587c1.682,0,3.206-0.683,4.317-1.794
	c1.111-1.111,1.794-2.635,1.794-4.333c0-1.682-0.682-3.222-1.794-4.317c-1.111-1.111-2.635-1.794-4.317-1.794
	c-0.254,0-0.508,0.016-0.746,0.048c-0.238,0.016-0.46,0.063-0.667,0.111c-0.079,0.016-0.159,0.032-0.254,0.048
	c-0.603,0.032-1.143-0.444-1.175-1.063c-0.19-3.222-1.651-6.127-3.857-8.206c-2.206-2.079-5.174-3.349-8.444-3.349
	c-2.381,0-4.587,0.683-6.476,1.841c-1.936,1.19-3.524,2.921-4.555,4.984l0,0c-0.254,0.524-0.889,0.762-1.429,0.54
	c-0.54-0.238-1.111-0.413-1.714-0.54c-0.556-0.111-1.159-0.175-1.778-0.175c-2.492,0-4.73,1.016-6.365,2.635
	c-1.635,1.635-2.635,3.889-2.635,6.365c0,2.492,1,4.73,2.635,6.365c1.635,1.619,3.873,2.635,6.365,2.635H21.935z M36.077,26.705
	c0.444,0.429,0.444,1.143,0,1.587c-0.429,0.429-1.143,0.429-1.571,0l-8.047-8.047V46.8c0,0.619-0.492,1.111-1.111,1.111
	c-0.619,0-1.127-0.492-1.127-1.111V20.245l-8.031,8.047c-0.444,0.429-1.159,0.429-1.587,0c-0.444-0.444-0.444-1.159,0-1.587
	l9.952-9.952c0.429-0.444,1.143-0.444,1.571,0L36.077,26.705z"/>
<g>
</g>
<g>
</g>
<g>
</g>
<g>
</g>
<g>
</g>
<g>
</g>
<g>
</g>
<g>
</g>
<g>
</g>
<g>
</g>
<g>
</g>
<g>
</g>
<g>
</g>
<g>
</g>
<g>
</g>
</svg>
