<?xml version="1.0" encoding="iso-8859-1"?>
<!-- Generator: Adobe Illustrator 19.1.0, SVG Export Plug-In . SVG Version: 6.00 Build 0)  -->
<svg version="1.1" id="Capa_1" xmlns="http://www.w3.org/2000/svg" xmlns:xlink="http://www.w3.org/1999/xlink" x="0px" y="0px"
	 viewBox="0 0 45.538 45.538" style="enable-background:new 0 0 45.538 45.538;" xml:space="preserve">
<path style="fill:#1E201D;" d="M6.524,39.935l-0.016,0.111l0,0V43.3H39.03v-2.746l-0.032-0.413c-0.206-2.444-1.27-4.714-2.968-6.635
	c-1.619-1.841-3.825-3.349-6.397-4.349c-0.841,0.841-1.809,1.524-2.857,2.032c-1.238,0.587-2.587,0.921-4,0.921
	c-1.476,0-2.873-0.349-4.143-0.984c-1.079-0.54-2.079-1.286-2.936-2.19c-2.587,0.936-4.793,2.397-6.397,4.222
	c-1.651,1.873-2.667,4.159-2.778,6.635l0,0V39.935L6.524,39.935z M22.777,0c2.984,0,5.666,1.555,7.587,4.047
	c1.857,2.413,3.016,5.73,3.016,9.381c0,3.651-1.159,6.968-3.016,9.381c-1.921,2.508-4.603,4.048-7.587,4.048
	c-2.984,0-5.682-1.54-7.603-4.048c-1.857-2.413-3.016-5.73-3.016-9.381c0-3.651,1.159-6.968,3.016-9.381
	C17.095,1.555,19.793,0,22.777,0L22.777,0z M28.602,5.413c-1.508-1.952-3.571-3.175-5.825-3.175c-2.27,0-4.333,1.222-5.841,3.175
	c-1.571,2.032-2.54,4.873-2.54,8.016c0,3.143,0.968,5.984,2.54,8.016c1.508,1.968,3.571,3.174,5.841,3.174
	c2.254,0,4.317-1.206,5.825-3.174c1.571-2.032,2.54-4.873,2.54-8.016C31.142,10.285,30.174,7.444,28.602,5.413L28.602,5.413z
	 M4.35,38.935c0.302-2.714,1.46-5.19,3.286-7.254c2-2.286,4.809-4.079,8.063-5.111l0.714-0.222l0.476,0.587
	c0.778,0.921,1.698,1.667,2.73,2.19c0.968,0.476,2.032,0.746,3.159,0.746c1.079,0,2.111-0.254,3.047-0.698
	c0.984-0.476,1.889-1.175,2.667-2.063l0.492-0.556l0.714,0.238c3.222,1.127,6,2.952,8,5.238c1.778,2,2.984,4.365,3.397,6.905h0.175
	v1.111v4.381v1.111h-1.127H5.397H4.27v-1.111v-4.381v-1.111H4.35z"/>
<g>
</g>
<g>
</g>
<g>
</g>
<g>
</g>
<g>
</g>
<g>
</g>
<g>
</g>
<g>
</g>
<g>
</g>
<g>
</g>
<g>
</g>
<g>
</g>
<g>
</g>
<g>
</g>
<g>
</g>
</svg>
